<?xml version="1.0" encoding="UTF-8"?>
<svg id="Layer_2" data-name="Layer 2" xmlns="http://www.w3.org/2000/svg" viewBox="0 0 618.38 275.42">
  <defs>
    <style>
      .cls-1 {
        fill: #eef0f2;
        stroke-width: 0px;
      }
    </style>
  </defs>
  <g id="Layer_1-2" data-name="Layer 1">
    <g>
      <path class="cls-1" d="M116.46,57.29c0-8.16-1.47-15.72-4.39-22.68-2.93-6.96-7.04-13.03-12.32-18.21-5.29-5.18-11.46-9.21-18.52-12.08-7.06-2.88-14.73-4.32-22.99-4.32s-16.09,1.44-23.15,4.32c-7.06,2.88-13.21,6.91-18.44,12.08-5.23,5.18-9.31,11.22-12.24,18.13C1.46,41.43,0,48.97,0,57.13s1.46,15.56,4.39,22.52c2.93,6.96,7.06,13.05,12.4,18.29,5.34,5.23,11.54,9.31,18.6,12.24,7.06,2.93,14.78,4.39,23.15,4.39s15.77-1.47,22.84-4.39c7.06-2.93,13.21-6.98,18.44-12.16,5.23-5.18,9.31-11.25,12.24-18.21,2.93-6.96,4.39-14.46,4.39-22.52ZM87.11,75.41c-2.72,5.29-6.57,9.39-11.54,12.32-4.97,2.93-10.75,4.39-17.34,4.39-4.92,0-9.42-.84-13.5-2.51-4.08-1.67-7.56-4.05-10.44-7.14-2.88-3.08-5.1-6.77-6.67-11.06-1.57-4.29-2.35-9.05-2.35-14.28,0-7.01,1.36-13.11,4.08-18.29,2.72-5.18,6.56-9.21,11.54-12.08,4.97-2.88,10.75-4.32,17.34-4.32,4.92,0,9.39.81,13.42,2.43,4.03,1.62,7.51,3.98,10.44,7.06,2.93,3.09,5.18,6.75,6.75,10.99,1.57,4.24,2.35,8.97,2.35,14.2,0,6.91-1.36,13-4.08,18.28Z"/>
      <polygon class="cls-1" points="156.79 46.33 208.58 112.69 226.63 112.69 226.63 1.88 201.99 1.88 201.99 69.25 149.42 1.88 132.15 1.88 132.15 112.69 156.79 112.69 156.79 46.33"/>
      <path class="cls-1" d="M70,223.94c5.65-2.72,10.04-6.51,13.18-11.38,3.14-4.87,4.71-10.54,4.71-17.03s-1.57-12.03-4.71-16.95c-3.14-4.92-7.48-8.76-13.03-11.54-5.55-2.77-11.98-4.16-19.3-4.16H5.65v110.81h24.64v-45.67h2.58l33.05,45.67h29.19l-35.51-46.49c3.77-.67,7.24-1.75,10.4-3.27ZM30.29,182.03h17.74c4.92,0,8.68,1.31,11.3,3.92,2.61,2.62,3.92,5.91,3.92,9.89,0,4.29-1.33,7.69-4,10.2-2.67,2.51-6.46,3.77-11.38,3.77h-17.58v-27.78Z"/>
      <polygon class="cls-1" points="165.58 137.93 152.4 119.41 127.44 142.79 135.29 154.25 165.58 137.93"/>
      <polygon class="cls-1" points="130.42 227.39 179.86 227.39 179.86 206.83 130.42 206.83 130.42 184.07 184.57 184.07 184.57 162.88 130.42 162.88 124.62 162.88 105.78 162.88 105.78 273.69 124.62 273.69 130.42 273.69 185.36 273.69 185.36 252.34 130.42 252.34 130.42 227.39"/>
      <path class="cls-1" d="M237.93,162.88l-43.95,110.81h25.58l7.37-20.09h43.43l7.27,20.09h26.05l-43.47-110.81h-22.29ZM234.31,233.51l14.5-39.52,14.3,39.52h-28.79Z"/>
      <polygon class="cls-1" points="340.11 162.88 315.47 162.88 315.47 273.69 334.46 273.69 340.11 273.69 389.23 273.69 389.23 252.03 340.11 252.03 340.11 162.88"/>
      <rect class="cls-1" x="403.52" y="162.88" width="24.64" height="110.81"/>
      <path class="cls-1" d="M512.83,217.27c-3.09-2.56-6.46-4.68-10.12-6.36-3.66-1.67-7.35-3.14-11.06-4.39-3.71-1.26-7.12-2.51-10.2-3.77-3.09-1.25-5.57-2.75-7.46-4.47-1.88-1.73-2.82-4-2.82-6.83,0-3.03,1.25-5.36,3.77-6.98,2.51-1.62,5.91-2.43,10.2-2.43s8.13.84,11.54,2.51c3.4,1.67,6.77,4.24,10.12,7.69l16.01-15.85c-4.19-4.71-9.5-8.42-15.93-11.14-6.43-2.72-13.52-4.08-21.27-4.08s-14.39,1.28-20.25,3.84c-5.86,2.57-10.44,6.3-13.73,11.22-3.3,4.92-4.94,10.78-4.94,17.58,0,5.65.94,10.33,2.83,14.05,1.88,3.71,4.37,6.8,7.46,9.26,3.08,2.46,6.46,4.5,10.12,6.12,3.66,1.62,7.35,3.06,11.06,4.32,3.71,1.26,7.11,2.57,10.2,3.92,3.08,1.36,5.57,2.98,7.46,4.87,1.88,1.88,2.83,4.34,2.83,7.38,0,3.35-1.44,5.96-4.32,7.85-2.88,1.88-6.93,2.83-12.16,2.83-5.76,0-10.81-1.12-15.15-3.37-4.34-2.25-8.29-5.42-11.85-9.5l-16.01,15.85c5.44,6.07,11.43,10.59,17.97,13.58,6.54,2.98,14.36,4.47,23.46,4.47,13.29,0,23.7-3.01,31.23-9.02,7.53-6.02,11.3-14.31,11.3-24.88,0-5.75-.94-10.59-2.83-14.52-1.88-3.92-4.37-7.17-7.46-9.73Z"/>
      <polygon class="cls-1" points="563.45 252.34 563.45 227.39 612.89 227.39 612.89 206.83 563.45 206.83 563.45 184.07 617.59 184.07 617.59 162.88 563.45 162.88 557.64 162.88 538.81 162.88 538.81 273.69 557.64 273.69 563.45 273.69 618.38 273.69 618.38 252.34 563.45 252.34"/>
    </g>
  </g>
</svg>