<?xml version="1.0" encoding="UTF-8"?>
<svg id="Layer_2" data-name="Layer 2" xmlns="http://www.w3.org/2000/svg" viewBox="0 0 572.87 275.42">
  <defs>
    <style>
      .cls-1 {
        fill: #eef0f2;
        stroke-width: 0px;
      }
    </style>
  </defs>
  <g id="Layer_1-2" data-name="Layer 1">
    <g>
      <path class="cls-1" d="M99.74,16.4c-5.29-5.18-11.46-9.21-18.52-12.08-7.06-2.88-14.73-4.32-22.99-4.32s-16.09,1.44-23.15,4.32c-7.06,2.88-13.21,6.91-18.44,12.08-5.23,5.18-9.31,11.22-12.24,18.13C1.46,41.43,0,48.97,0,57.13s1.46,15.56,4.39,22.52c2.93,6.96,7.06,13.05,12.4,18.29,5.34,5.23,11.54,9.31,18.6,12.24,7.06,2.93,14.78,4.39,23.15,4.39s15.77-1.47,22.84-4.39c7.06-2.93,13.21-6.98,18.44-12.16,5.23-5.18,9.31-11.25,12.24-18.21,2.93-6.96,4.39-14.46,4.39-22.52s-1.47-15.72-4.39-22.68c-2.93-6.96-7.04-13.03-12.32-18.21ZM87.11,75.41c-2.72,5.29-6.57,9.39-11.54,12.32-4.97,2.93-10.75,4.39-17.34,4.39-4.92,0-9.42-.84-13.5-2.51-4.08-1.67-7.56-4.05-10.44-7.14-2.88-3.08-5.1-6.77-6.67-11.06-1.57-4.29-2.35-9.05-2.35-14.28,0-7.01,1.36-13.11,4.08-18.29,2.72-5.18,6.56-9.21,11.54-12.08,4.97-2.88,10.75-4.32,17.34-4.32,4.92,0,9.39.81,13.42,2.43,4.03,1.62,7.51,3.98,10.44,7.06,2.93,3.09,5.18,6.75,6.75,10.99,1.57,4.24,2.35,8.97,2.35,14.2,0,6.91-1.36,13-4.08,18.28Z"/>
      <polygon class="cls-1" points="226.63 1.88 201.99 1.88 201.99 69.25 149.42 1.88 132.15 1.88 132.15 112.69 156.79 112.69 156.79 46.33 208.58 112.69 226.63 112.69 226.63 1.88"/>
      <path class="cls-1" d="M91.74,178.34c-5.28-4.97-11.46-8.79-18.52-11.46s-14.78-4-23.15-4H5.65v110.81h44.73c8.26,0,15.93-1.36,22.99-4.08,7.06-2.72,13.21-6.54,18.44-11.46,5.23-4.92,9.28-10.78,12.16-17.58,2.88-6.8,4.32-14.23,4.32-22.29s-1.44-15.62-4.32-22.37c-2.88-6.75-6.96-12.61-12.24-17.58ZM78.95,236.34c-2.72,5.13-6.59,9.02-11.61,11.69s-10.88,4-17.58,4h-19.46v-67.64h19.46c6.69,0,12.53,1.36,17.5,4.08,4.97,2.72,8.84,6.59,11.61,11.61,2.77,5.02,4.16,11.04,4.16,18.05s-1.36,13.08-4.08,18.21Z"/>
      <polygon class="cls-1" points="148.63 227.39 198.07 227.39 198.07 206.83 148.63 206.83 148.63 184.07 202.78 184.07 202.78 162.88 148.63 162.88 142.82 162.88 123.99 162.88 123.99 273.69 142.82 273.69 148.63 273.69 203.56 273.69 203.56 252.34 148.63 252.34 148.63 227.39"/>
      <path class="cls-1" d="M283.21,217.27c-3.09-2.56-6.46-4.68-10.12-6.36-3.66-1.67-7.35-3.14-11.06-4.39-3.71-1.26-7.12-2.51-10.2-3.77-3.09-1.25-5.57-2.75-7.46-4.47-1.88-1.73-2.82-4-2.82-6.83,0-3.03,1.25-5.36,3.77-6.98,2.51-1.62,5.91-2.43,10.2-2.43s8.13.84,11.54,2.51c3.4,1.67,6.77,4.24,10.12,7.69l16.01-15.85c-4.19-4.71-9.5-8.42-15.93-11.14-6.43-2.72-13.52-4.08-21.27-4.08s-14.39,1.28-20.25,3.84c-5.86,2.57-10.44,6.3-13.73,11.22-3.3,4.92-4.94,10.78-4.94,17.58,0,5.65.94,10.33,2.83,14.05,1.88,3.71,4.37,6.8,7.46,9.26,3.08,2.46,6.46,4.5,10.12,6.12,3.66,1.62,7.35,3.06,11.06,4.32,3.71,1.26,7.11,2.57,10.2,3.92,3.08,1.36,5.57,2.98,7.46,4.87,1.88,1.88,2.83,4.34,2.83,7.38,0,3.35-1.44,5.96-4.32,7.85-2.88,1.88-6.93,2.83-12.16,2.83-5.76,0-10.81-1.12-15.15-3.37-4.34-2.25-8.29-5.42-11.85-9.5l-16.01,15.85c5.44,6.07,11.43,10.59,17.97,13.58,6.54,2.98,14.36,4.47,23.46,4.47,13.29,0,23.7-3.01,31.23-9.02,7.53-6.02,11.3-14.31,11.3-24.88,0-5.75-.94-10.59-2.83-14.52-1.88-3.92-4.37-7.17-7.46-9.73Z"/>
      <rect class="cls-1" x="309.19" y="162.88" width="24.64" height="110.81"/>
      <path class="cls-1" d="M405.24,231.78l31.84.5c-.6,2.28-1.39,4.39-2.41,6.32-2.46,4.66-5.96,8.21-10.52,10.67-4.55,2.46-10.07,3.69-16.56,3.69s-12.03-1.46-16.95-4.39c-4.92-2.93-8.79-7.01-11.61-12.24-2.83-5.23-4.24-11.3-4.24-18.21s1.44-12.95,4.32-18.13c2.88-5.18,6.88-9.21,12.01-12.08,5.12-2.88,10.93-4.32,17.42-4.32,6.07,0,11.51,1.15,16.32,3.45,4.81,2.3,9,5.75,12.56,10.36l16.79-16.79c-5.13-6.07-11.59-10.83-19.38-14.28-7.8-3.45-16.46-5.18-25.97-5.18-8.27,0-16.01,1.44-23.23,4.32-7.22,2.88-13.53,6.91-18.91,12.08-5.39,5.18-9.6,11.22-12.63,18.13-3.04,6.91-4.55,14.39-4.55,22.44s1.49,15.56,4.47,22.52c2.98,6.96,7.09,13.03,12.32,18.21,5.23,5.18,11.38,9.24,18.44,12.16,7.06,2.93,14.62,4.39,22.68,4.39,10.99,0,20.69-2.3,29.11-6.91,8.42-4.6,15.01-11.43,19.78-20.48,4.76-9.05,7.14-20.22,7.14-33.51v-3.61h-58.23v20.87Z"/>
      <polygon class="cls-1" points="548.22 162.88 548.22 230.25 495.65 162.88 478.38 162.88 478.38 273.69 503.02 273.69 503.02 207.33 554.82 273.69 572.87 273.69 572.87 162.88 548.22 162.88"/>
    </g>
  </g>
</svg>