<?xml version="1.0" encoding="UTF-8"?>
<svg id="Layer_2" data-name="Layer 2" xmlns="http://www.w3.org/2000/svg" viewBox="0 0 644.12 273.69">
  <defs>
    <style>
      .cls-1 {
        fill: #eef0f2;
        stroke-width: 0px;
      }
    </style>
  </defs>
  <g id="Layer_1-2" data-name="Layer 1">
    <g>
      <path class="cls-1" d="M81.38,110.18c7.06-2.93,13.21-6.98,18.44-12.16,5.23-5.18,9.31-11.25,12.24-18.21,2.93-6.96,4.39-14.46,4.39-22.52s-1.47-15.72-4.39-22.68c-2.93-6.96-7.04-13.03-12.32-18.21-5.29-5.18-11.46-9.21-18.52-12.08-7.06-2.88-14.73-4.32-22.99-4.32s-16.09,1.44-23.15,4.32c-7.06,2.88-13.21,6.91-18.44,12.08-5.23,5.18-9.31,11.22-12.24,18.13C1.46,41.43,0,48.97,0,57.13s1.46,15.56,4.39,22.52c2.93,6.96,7.06,13.05,12.4,18.29,5.34,5.23,11.54,9.31,18.6,12.24,7.06,2.93,14.78,4.39,23.15,4.39s15.77-1.47,22.84-4.39ZM44.73,89.62c-4.08-1.67-7.56-4.05-10.44-7.14-2.88-3.08-5.1-6.77-6.67-11.06-1.57-4.29-2.35-9.05-2.35-14.28,0-7.01,1.36-13.11,4.08-18.29,2.72-5.18,6.56-9.21,11.54-12.08,4.97-2.88,10.75-4.32,17.34-4.32,4.92,0,9.39.81,13.42,2.43,4.03,1.62,7.51,3.98,10.44,7.06,2.93,3.09,5.18,6.75,6.75,10.99,1.57,4.24,2.35,8.97,2.35,14.2,0,6.91-1.36,13-4.08,18.28-2.72,5.29-6.57,9.39-11.54,12.32-4.97,2.93-10.75,4.39-17.34,4.39-4.92,0-9.42-.84-13.5-2.51Z"/>
      <polygon class="cls-1" points="156.79 46.33 208.58 112.69 226.63 112.69 226.63 1.88 201.99 1.88 201.99 69.25 149.42 1.88 132.15 1.88 132.15 112.69 156.79 112.69 156.79 46.33"/>
      <rect class="cls-1" x="5.65" y="162.88" width="24.64" height="110.81"/>
      <polygon class="cls-1" points="108.37 223.86 69.21 162.88 51.64 162.88 51.64 273.69 76.12 273.69 76.12 212.21 100.13 249.83 116.46 249.83 140.47 212.42 140.47 273.69 165.11 273.69 165.11 162.88 147.38 162.88 108.37 223.86"/>
      <path class="cls-1" d="M251.59,167.12c-5.65-2.83-11.98-4.24-18.99-4.24h-46.3v110.81h24.64v-40.34h21.66c7.01,0,13.34-1.44,18.99-4.32,5.65-2.88,10.12-6.96,13.42-12.24,3.3-5.28,4.94-11.54,4.94-18.75s-1.65-13.47-4.94-18.76c-3.3-5.28-7.77-9.34-13.42-12.16ZM243.27,206.83c-1.47,2.41-3.45,4.24-5.96,5.49-2.51,1.26-5.28,1.88-8.32,1.88h-18.05v-32.17h18.05c3.03,0,5.81.63,8.32,1.88,2.51,1.26,4.5,3.09,5.96,5.49,1.46,2.41,2.2,5.29,2.2,8.63s-.73,6.38-2.2,8.79Z"/>
      <path class="cls-1" d="M348.11,223.94c5.65-2.72,10.04-6.51,13.18-11.38,3.14-4.87,4.71-10.54,4.71-17.03s-1.57-12.03-4.71-16.95c-3.14-4.92-7.48-8.76-13.03-11.54-5.55-2.77-11.98-4.16-19.3-4.16h-45.2v110.81h24.64v-45.67h2.58l33.05,45.67h29.19l-35.51-46.49c3.77-.67,7.24-1.75,10.4-3.27ZM308.41,182.03h17.74c4.92,0,8.68,1.31,11.3,3.92,2.61,2.62,3.92,5.91,3.92,9.89,0,4.29-1.33,7.69-4,10.2-2.67,2.51-6.46,3.77-11.38,3.77h-17.58v-27.78Z"/>
      <rect class="cls-1" x="383.9" y="162.88" width="24.64" height="110.81"/>
      <polygon class="cls-1" points="486.61 223.86 447.46 162.88 429.88 162.88 429.88 273.69 454.37 273.69 454.37 212.21 478.38 249.83 494.7 249.83 518.72 212.42 518.72 273.69 543.36 273.69 543.36 162.88 525.62 162.88 486.61 223.86"/>
      <polygon class="cls-1" points="589.19 252.34 589.19 227.39 638.63 227.39 638.63 206.83 589.19 206.83 589.19 184.07 643.33 184.07 643.33 162.88 589.19 162.88 583.38 162.88 564.55 162.88 564.55 273.69 583.38 273.69 589.19 273.69 644.12 273.69 644.12 252.34 589.19 252.34"/>
    </g>
  </g>
</svg>