<?xml version="1.0" encoding="UTF-8"?>
<svg id="Layer_2" data-name="Layer 2" xmlns="http://www.w3.org/2000/svg" viewBox="0 0 657.3 275.57">
  <defs>
    <style>
      .cls-1 {
        fill: #eef0f2;
        stroke-width: 0px;
      }
    </style>
  </defs>
  <g id="Layer_1-2" data-name="Layer 1">
    <g>
      <path class="cls-1" d="M16.79,97.94c5.34,5.23,11.54,9.31,18.6,12.24,7.06,2.93,14.78,4.39,23.15,4.39s15.77-1.47,22.84-4.39c7.06-2.93,13.21-6.98,18.44-12.16,5.23-5.18,9.31-11.25,12.24-18.21,2.93-6.96,4.39-14.46,4.39-22.52s-1.47-15.72-4.39-22.68c-2.93-6.96-7.04-13.03-12.32-18.21-5.29-5.18-11.46-9.21-18.52-12.08-7.06-2.88-14.73-4.32-22.99-4.32s-16.09,1.44-23.15,4.32c-7.06,2.88-13.21,6.91-18.44,12.08-5.23,5.18-9.31,11.22-12.24,18.13C1.46,41.43,0,48.97,0,57.13s1.46,15.56,4.39,22.52c2.93,6.96,7.06,13.05,12.4,18.29ZM29.35,38.84c2.72-5.18,6.56-9.21,11.54-12.08,4.97-2.88,10.75-4.32,17.34-4.32,4.92,0,9.39.81,13.42,2.43,4.03,1.62,7.51,3.98,10.44,7.06,2.93,3.09,5.18,6.75,6.75,10.99,1.57,4.24,2.35,8.97,2.35,14.2,0,6.91-1.36,13-4.08,18.28-2.72,5.29-6.57,9.39-11.54,12.32-4.97,2.93-10.75,4.39-17.34,4.39-4.92,0-9.42-.84-13.5-2.51-4.08-1.67-7.56-4.05-10.44-7.14-2.88-3.08-5.1-6.77-6.67-11.06-1.57-4.29-2.35-9.05-2.35-14.28,0-7.01,1.36-13.11,4.08-18.29Z"/>
      <polygon class="cls-1" points="201.99 69.25 149.42 1.88 132.15 1.88 132.15 112.69 156.79 112.69 156.79 46.33 208.58 112.69 226.63 112.69 226.63 1.88 201.99 1.88 201.99 69.25"/>
      <path class="cls-1" d="M72.82,250.3c-4.19,1.78-9.1,2.67-14.75,2.67-4.81,0-9.24-.84-13.26-2.51-4.03-1.67-7.48-4.03-10.36-7.06-2.88-3.03-5.13-6.7-6.75-10.99-1.62-4.29-2.43-9.05-2.43-14.28s.81-9.83,2.43-14.13c1.62-4.29,3.87-7.95,6.75-10.99,2.88-3.03,6.33-5.36,10.36-6.98,4.03-1.62,8.45-2.43,13.26-2.43,5.44,0,10.23.89,14.36,2.67,4.13,1.78,7.66,4.24,10.59,7.38l16.48-16.64c-5.13-4.92-11.12-8.79-17.97-11.61-6.85-2.83-14.67-4.24-23.46-4.24-8.27,0-15.93,1.44-22.99,4.32-7.06,2.88-13.21,6.88-18.44,12.01-5.23,5.13-9.31,11.17-12.24,18.13-2.93,6.96-4.39,14.47-4.39,22.52s1.46,15.56,4.39,22.52c2.93,6.96,7.04,13.05,12.32,18.29,5.28,5.23,11.46,9.29,18.52,12.16,7.06,2.88,14.73,4.32,22.99,4.32,9,0,16.92-1.41,23.78-4.24,6.85-2.83,12.95-6.7,18.28-11.61l-16.64-16.64c-3.04,3.14-6.65,5.6-10.83,7.38Z"/>
      <path class="cls-1" d="M203.48,177.4c-5.29-5.18-11.46-9.21-18.52-12.08-7.06-2.88-14.73-4.32-22.99-4.32s-16.09,1.44-23.15,4.32c-7.06,2.88-13.21,6.91-18.44,12.08-5.23,5.18-9.31,11.22-12.24,18.13-2.93,6.91-4.39,14.44-4.39,22.6s1.46,15.56,4.39,22.52c2.93,6.96,7.06,13.05,12.4,18.29,5.34,5.23,11.54,9.31,18.6,12.24,7.06,2.93,14.78,4.39,23.15,4.39s15.77-1.47,22.84-4.39c7.06-2.93,13.21-6.98,18.44-12.16,5.23-5.18,9.31-11.25,12.24-18.21,2.93-6.96,4.39-14.46,4.39-22.52s-1.47-15.72-4.39-22.68c-2.93-6.96-7.04-13.03-12.32-18.21ZM190.85,236.41c-2.72,5.29-6.57,9.39-11.54,12.32-4.97,2.93-10.75,4.39-17.34,4.39-4.92,0-9.42-.84-13.5-2.51-4.08-1.67-7.56-4.05-10.44-7.14-2.88-3.08-5.1-6.77-6.67-11.06-1.57-4.29-2.35-9.05-2.35-14.28,0-7.01,1.36-13.11,4.08-18.29,2.72-5.18,6.56-9.21,11.54-12.08,4.97-2.88,10.75-4.32,17.34-4.32,4.92,0,9.39.81,13.42,2.43,4.03,1.62,7.51,3.98,10.44,7.06,2.93,3.09,5.18,6.75,6.75,10.99,1.57,4.24,2.35,8.97,2.35,14.2,0,6.91-1.36,13-4.08,18.28Z"/>
      <polygon class="cls-1" points="305.74 230.25 253.16 162.88 235.89 162.88 235.89 273.69 260.54 273.69 260.54 207.33 312.33 273.69 330.38 273.69 330.38 162.88 305.74 162.88 305.74 230.25"/>
      <path class="cls-1" d="M415.05,217.27c-3.09-2.56-6.46-4.68-10.12-6.36-3.66-1.67-7.35-3.14-11.06-4.39-3.71-1.26-7.12-2.51-10.2-3.77-3.09-1.25-5.57-2.75-7.46-4.47-1.88-1.73-2.82-4-2.82-6.83,0-3.03,1.25-5.36,3.77-6.98,2.51-1.62,5.91-2.43,10.2-2.43s8.13.84,11.54,2.51c3.4,1.67,6.77,4.24,10.12,7.69l16.01-15.85c-4.19-4.71-9.5-8.42-15.93-11.14-6.43-2.72-13.52-4.08-21.27-4.08s-14.39,1.28-20.25,3.84c-5.86,2.57-10.44,6.3-13.73,11.22-3.3,4.92-4.94,10.78-4.94,17.58,0,5.65.94,10.33,2.83,14.05,1.88,3.71,4.37,6.8,7.46,9.26,3.08,2.46,6.46,4.5,10.12,6.12,3.66,1.62,7.35,3.06,11.06,4.32,3.71,1.26,7.11,2.57,10.2,3.92,3.08,1.36,5.57,2.98,7.46,4.87,1.88,1.88,2.83,4.34,2.83,7.38,0,3.35-1.44,5.96-4.32,7.85-2.88,1.88-6.93,2.83-12.16,2.83-5.76,0-10.81-1.12-15.15-3.37-4.34-2.25-8.29-5.42-11.85-9.5l-16.01,15.85c5.44,6.07,11.43,10.59,17.97,13.58,6.54,2.98,14.36,4.47,23.46,4.47,13.29,0,23.7-3.01,31.23-9.02,7.53-6.02,11.3-14.31,11.3-24.88,0-5.75-.94-10.59-2.83-14.52-1.88-3.92-4.37-7.17-7.46-9.73Z"/>
      <polygon class="cls-1" points="465.67 227.39 515.11 227.39 515.11 206.83 465.67 206.83 465.67 184.07 519.82 184.07 519.82 162.88 465.67 162.88 459.86 162.88 441.03 162.88 441.03 273.69 459.86 273.69 465.67 273.69 520.6 273.69 520.6 252.34 465.67 252.34 465.67 227.39"/>
      <rect class="cls-1" x="537.55" y="162.88" width="24.64" height="110.81"/>
      <polygon class="cls-1" points="608.18 252.03 608.18 162.88 583.54 162.88 583.54 273.69 602.53 273.69 608.18 273.69 657.3 273.69 657.3 252.03 608.18 252.03"/>
    </g>
  </g>
</svg>