<?xml version="1.0" encoding="UTF-8"?>
<svg id="Layer_2" data-name="Layer 2" xmlns="http://www.w3.org/2000/svg" xmlns:xlink="http://www.w3.org/1999/xlink" viewBox="0 0 428 97">
  <defs>
    <style>
      .cls-1 {
        fill: none;
        stroke: url(#linear-gradient);
        stroke-miterlimit: 10;
        stroke-width: 2px;
      }

      .cls-2 {
        fill: #fff;
        stroke-width: 0px;
      }
    </style>
    <linearGradient id="linear-gradient" x1="0" y1="48.5" x2="428" y2="48.5" gradientUnits="userSpaceOnUse">
      <stop offset="0" stop-color="#f9df7b"/>
      <stop offset=".28" stop-color="#b57e10"/>
      <stop offset=".34" stop-color="#e5c25b"/>
      <stop offset=".37" stop-color="#f9df7b"/>
      <stop offset=".48" stop-color="#fff3a6"/>
      <stop offset=".64" stop-color="#f9df7b"/>
      <stop offset="1" stop-color="#b57e10"/>
    </linearGradient>
  </defs>
  <g id="Layer_1-2" data-name="Layer 1">
    <rect class="cls-1" x="1" y="1" width="426" height="95" rx="47.5" ry="47.5"/>
    <g>
      <polygon class="cls-2" points="49.66 30.4 43.53 24.66 40.29 29.21 47.73 33.22 49.66 30.4"/>
      <path class="cls-2" d="M42.99,35.34l-10.8,27.23h6.29l1.81-4.94h10.68l1.79,4.94h6.4l-10.69-27.23h-5.48ZM42.1,52.7l3.56-9.71,3.51,9.71h-7.08Z"/>
      <path class="cls-2" d="M84.65,36.38c-1.39-.69-2.94-1.04-4.67-1.04h-11.38v27.23h6.06v-9.91h5.32c1.72,0,3.28-.35,4.67-1.06,1.39-.71,2.49-1.71,3.3-3.01.81-1.3,1.21-2.83,1.21-4.61s-.41-3.31-1.21-4.61c-.81-1.3-1.91-2.29-3.3-2.99ZM82.61,46.14c-.36.59-.85,1.04-1.47,1.35s-1.3.46-2.04.46h-4.44v-7.91h4.44c.75,0,1.43.15,2.04.46s1.11.76,1.47,1.35c.36.59.54,1.3.54,2.12s-.18,1.57-.54,2.16Z"/>
      <path class="cls-2" d="M108.37,50.35c1.39-.67,2.47-1.6,3.24-2.8.77-1.2,1.16-2.59,1.16-4.18s-.39-2.96-1.16-4.17c-.77-1.21-1.84-2.15-3.2-2.83-1.36-.68-2.95-1.02-4.75-1.02h-11.11v27.23h6.06v-11.23h.63l8.12,11.23h7.18l-8.73-11.43c.93-.16,1.79-.42,2.56-.8ZM102.93,46.88h-4.32v-6.83h4.36c1.21,0,2.13.32,2.78.96.64.64.96,1.45.96,2.43,0,1.05-.33,1.89-.98,2.51-.66.62-1.59.93-2.8.93Z"/>
      <path class="cls-2" d="M140.18,38.91c-1.3-1.27-2.82-2.26-4.55-2.97-1.74-.71-3.62-1.06-5.65-1.06s-3.95.35-5.69,1.06c-1.74.71-3.25,1.7-4.53,2.97-1.29,1.27-2.29,2.76-3.01,4.46-.72,1.7-1.08,3.55-1.08,5.55s.36,3.83,1.08,5.54c.72,1.71,1.74,3.21,3.05,4.49s2.83,2.29,4.57,3.01c1.74.72,3.63,1.08,5.69,1.08s3.88-.36,5.61-1.08c1.74-.72,3.25-1.72,4.53-2.99,1.29-1.27,2.29-2.76,3.01-4.47.72-1.71,1.08-3.56,1.08-5.54s-.36-3.86-1.08-5.57c-.72-1.71-1.73-3.2-3.03-4.47ZM137.07,53.42c-.67,1.3-1.61,2.31-2.83,3.03-1.22.72-2.64,1.08-4.26,1.08-1.21,0-2.31-.21-3.32-.62-1-.41-1.86-1-2.57-1.75-.71-.76-1.25-1.67-1.64-2.72-.39-1.05-.58-2.22-.58-3.51,0-1.72.33-3.22,1-4.49.67-1.27,1.61-2.26,2.83-2.97,1.22-.71,2.64-1.06,4.26-1.06,1.21,0,2.31.2,3.3.6.99.4,1.84.98,2.57,1.74.72.76,1.27,1.66,1.66,2.7.39,1.04.58,2.21.58,3.49,0,1.7-.33,3.2-1,4.49Z"/>
      <path class="cls-2" d="M164.19,36.38c-1.39-.69-2.94-1.04-4.67-1.04h-11.38v27.23h6.06v-9.91h5.32c1.72,0,3.28-.35,4.67-1.06,1.39-.71,2.49-1.71,3.3-3.01.81-1.3,1.21-2.83,1.21-4.61s-.41-3.31-1.21-4.61c-.81-1.3-1.91-2.29-3.3-2.99ZM162.15,46.14c-.36.59-.85,1.04-1.47,1.35s-1.3.46-2.04.46h-4.44v-7.91h4.44c.75,0,1.43.15,2.04.46s1.11.76,1.47,1.35c.36.59.54,1.3.54,2.12s-.18,1.57-.54,2.16Z"/>
      <path class="cls-2" d="M195.5,38.91c-1.3-1.27-2.82-2.26-4.55-2.97-1.74-.71-3.62-1.06-5.65-1.06s-3.95.35-5.69,1.06c-1.74.71-3.25,1.7-4.53,2.97-1.29,1.27-2.29,2.76-3.01,4.46-.72,1.7-1.08,3.55-1.08,5.55s.36,3.83,1.08,5.54c.72,1.71,1.74,3.21,3.05,4.49s2.83,2.29,4.57,3.01c1.74.72,3.63,1.08,5.69,1.08s3.88-.36,5.61-1.08c1.74-.72,3.25-1.72,4.53-2.99,1.29-1.27,2.29-2.76,3.01-4.47.72-1.71,1.08-3.56,1.08-5.54s-.36-3.86-1.08-5.57c-.72-1.71-1.73-3.2-3.03-4.47ZM192.39,53.42c-.67,1.3-1.61,2.31-2.83,3.03-1.22.72-2.64,1.08-4.26,1.08-1.21,0-2.31-.21-3.32-.62-1-.41-1.86-1-2.57-1.75-.71-.76-1.25-1.67-1.64-2.72-.39-1.05-.58-2.22-.58-3.51,0-1.72.33-3.22,1-4.49.67-1.27,1.61-2.26,2.83-2.97,1.22-.71,2.64-1.06,4.26-1.06,1.21,0,2.31.2,3.3.6.99.4,1.84.98,2.57,1.74.72.76,1.27,1.66,1.66,2.7.39,1.04.58,2.21.58,3.49,0,1.7-.33,3.2-1,4.49Z"/>
      <path class="cls-2" d="M218.95,48.71c-.76-.63-1.59-1.15-2.49-1.56-.9-.41-1.81-.77-2.72-1.08s-1.75-.62-2.51-.93c-.76-.31-1.37-.68-1.83-1.1-.46-.42-.69-.98-.69-1.68,0-.75.31-1.32.93-1.72s1.45-.6,2.51-.6,2,.21,2.83.62c.84.41,1.67,1.04,2.49,1.89l3.93-3.9c-1.03-1.16-2.33-2.07-3.92-2.74-1.58-.67-3.32-1-5.23-1s-3.54.32-4.98.95c-1.44.63-2.57,1.55-3.38,2.76-.81,1.21-1.21,2.65-1.21,4.32,0,1.39.23,2.54.69,3.45.46.91,1.07,1.67,1.83,2.28s1.59,1.11,2.49,1.5c.9.4,1.81.75,2.72,1.06.91.31,1.75.63,2.51.96.76.33,1.37.73,1.83,1.2s.69,1.07.69,1.81c0,.82-.35,1.47-1.06,1.93-.71.46-1.7.69-2.99.69-1.41,0-2.66-.28-3.72-.83-1.07-.55-2.04-1.33-2.91-2.33l-3.93,3.9c1.34,1.49,2.81,2.6,4.42,3.34,1.61.73,3.53,1.1,5.77,1.1,3.27,0,5.83-.74,7.68-2.22,1.85-1.48,2.78-3.52,2.78-6.11,0-1.41-.23-2.6-.69-3.57-.46-.96-1.07-1.76-1.83-2.39Z"/>
      <path class="cls-2" d="M253.82,39.14c-1.3-1.22-2.82-2.16-4.55-2.82-1.74-.66-3.63-.98-5.69-.98h-10.92v27.23h10.99c2.03,0,3.92-.33,5.65-1,1.74-.67,3.25-1.61,4.53-2.82,1.29-1.21,2.28-2.65,2.99-4.32.71-1.67,1.06-3.5,1.06-5.48s-.35-3.84-1.06-5.5c-.71-1.66-1.71-3.1-3.01-4.32ZM250.68,53.4c-.67,1.26-1.62,2.22-2.85,2.87-1.23.66-2.67.98-4.32.98h-4.78v-16.63h4.78c1.65,0,3.08.33,4.3,1,1.22.67,2.17,1.62,2.85,2.85s1.02,2.71,1.02,4.44-.33,3.21-1,4.47Z"/>
      <polygon class="cls-2" points="267.8 51.2 279.96 51.2 279.96 46.14 267.8 46.14 267.8 40.55 281.11 40.55 281.11 35.34 267.8 35.34 266.38 35.34 261.75 35.34 261.75 62.58 266.38 62.58 267.8 62.58 281.31 62.58 281.31 57.33 267.8 57.33 267.8 51.2"/>
      <polygon class="cls-2" points="309.97 51.9 297.04 35.34 292.8 35.34 292.8 62.58 298.86 62.58 298.86 46.27 311.59 62.58 316.02 62.58 316.02 35.34 309.97 35.34 309.97 51.9"/>
      <path class="cls-2" d="M344.4,38.91c-1.3-1.27-2.82-2.26-4.55-2.97-1.74-.71-3.62-1.06-5.65-1.06s-3.95.35-5.69,1.06c-1.74.71-3.25,1.7-4.53,2.97-1.29,1.27-2.29,2.76-3.01,4.46-.72,1.7-1.08,3.55-1.08,5.55s.36,3.83,1.08,5.54c.72,1.71,1.74,3.21,3.05,4.49s2.83,2.29,4.57,3.01c1.74.72,3.63,1.08,5.69,1.08s3.88-.36,5.61-1.08c1.74-.72,3.25-1.72,4.53-2.99,1.29-1.27,2.29-2.76,3.01-4.47.72-1.71,1.08-3.56,1.08-5.54s-.36-3.86-1.08-5.57c-.72-1.71-1.73-3.2-3.03-4.47ZM341.29,53.42c-.67,1.3-1.61,2.31-2.83,3.03-1.22.72-2.64,1.08-4.26,1.08-1.21,0-2.31-.21-3.32-.62-1-.41-1.86-1-2.57-1.75-.71-.76-1.25-1.67-1.64-2.72-.39-1.05-.58-2.22-.58-3.51,0-1.72.33-3.22,1-4.49.67-1.27,1.61-2.26,2.83-2.97,1.22-.71,2.64-1.06,4.26-1.06,1.21,0,2.31.2,3.3.6.99.4,1.84.98,2.57,1.74.72.76,1.27,1.66,1.66,2.7.39,1.04.58,2.21.58,3.49,0,1.7-.33,3.2-1,4.49Z"/>
      <path class="cls-2" d="M368.52,52.24c0,1.08-.23,2.01-.67,2.8-.45.78-1.06,1.39-1.83,1.81-.77.42-1.67.64-2.7.64s-1.87-.21-2.68-.64c-.81-.42-1.45-1.04-1.91-1.83s-.69-1.74-.69-2.82v-16.86h-6.09v16.51c0,2.16.48,4.08,1.45,5.77.96,1.68,2.3,3,4.01,3.95,1.71.95,3.68,1.43,5.92,1.43s4.21-.48,5.9-1.43c1.7-.95,3.02-2.26,3.97-3.93.95-1.67,1.43-3.59,1.43-5.75v-16.55h-6.09v16.9Z"/>
      <path class="cls-2" d="M397.07,51.1c-.46-.96-1.07-1.76-1.83-2.39-.76-.63-1.59-1.15-2.49-1.56-.9-.41-1.81-.77-2.72-1.08s-1.75-.62-2.51-.93c-.76-.31-1.37-.68-1.83-1.1-.46-.42-.69-.98-.69-1.68,0-.75.31-1.32.93-1.72s1.45-.6,2.51-.6,2,.21,2.83.62c.84.41,1.67,1.04,2.49,1.89l3.93-3.9c-1.03-1.16-2.33-2.07-3.92-2.74-1.58-.67-3.32-1-5.23-1s-3.54.32-4.98.95c-1.44.63-2.57,1.55-3.38,2.76-.81,1.21-1.21,2.65-1.21,4.32,0,1.39.23,2.54.69,3.45.46.91,1.07,1.67,1.83,2.28s1.59,1.11,2.49,1.5c.9.4,1.81.75,2.72,1.06.91.31,1.75.63,2.51.96.76.33,1.37.73,1.83,1.2s.69,1.07.69,1.81c0,.82-.35,1.47-1.06,1.93-.71.46-1.7.69-2.99.69-1.41,0-2.66-.28-3.72-.83-1.07-.55-2.04-1.33-2.91-2.33l-3.93,3.9c1.34,1.49,2.81,2.6,4.42,3.34,1.61.73,3.53,1.1,5.77,1.1,3.27,0,5.83-.74,7.68-2.22,1.85-1.48,2.78-3.52,2.78-6.11,0-1.41-.23-2.6-.69-3.57Z"/>
    </g>
  </g>
</svg>