<?xml version="1.0" encoding="UTF-8"?>
<svg id="Layer_2" data-name="Layer 2" xmlns="http://www.w3.org/2000/svg" xmlns:xlink="http://www.w3.org/1999/xlink" viewBox="0 0 572 97">
  <defs>
    <style>
      .cls-1 {
        fill: none;
        stroke: url(#linear-gradient);
        stroke-miterlimit: 10;
        stroke-width: 2px;
      }

      .cls-2 {
        fill: #fff;
        stroke-width: 0px;
      }
    </style>
    <linearGradient id="linear-gradient" x1="0" y1="48.5" x2="572" y2="48.5" gradientUnits="userSpaceOnUse">
      <stop offset="0" stop-color="#f9df7b"/>
      <stop offset=".28" stop-color="#b57e10"/>
      <stop offset=".34" stop-color="#e5c25b"/>
      <stop offset=".37" stop-color="#f9df7b"/>
      <stop offset=".48" stop-color="#fff3a6"/>
      <stop offset=".64" stop-color="#f9df7b"/>
      <stop offset="1" stop-color="#b57e10"/>
    </linearGradient>
  </defs>
  <g id="Layer_1-2" data-name="Layer 1">
    <rect class="cls-1" x="1" y="1" width="570" height="95" rx="47.5" ry="47.5"/>
    <g>
      <path class="cls-2" d="M46.54,67.71c-2.92,0-5.62-.51-8.11-1.52s-4.67-2.44-6.53-4.29c-1.86-1.84-3.31-3.99-4.34-6.45-1.03-2.45-1.55-5.1-1.55-7.94s.52-5.49,1.55-7.94c1.03-2.45,2.47-4.58,4.32-6.39,1.84-1.81,4.01-3.22,6.5-4.23,2.49-1.01,5.19-1.52,8.11-1.52,3.1,0,5.86.5,8.27,1.49,2.42,1,4.53,2.36,6.34,4.09l-5.81,5.87c-1.03-1.11-2.28-1.97-3.74-2.6-1.46-.63-3.15-.94-5.06-.94-1.7,0-3.26.29-4.68.86-1.42.57-2.64,1.39-3.65,2.46-1.01,1.07-1.81,2.36-2.38,3.87-.57,1.51-.86,3.17-.86,4.98s.29,3.52.86,5.04c.57,1.51,1.36,2.8,2.38,3.87s2.23,1.9,3.65,2.49c1.42.59,2.98.88,4.68.88,1.99,0,3.73-.31,5.2-.94,1.47-.63,2.75-1.49,3.82-2.6l5.87,5.87c-1.88,1.73-4.03,3.1-6.45,4.09-2.42,1-5.21,1.49-8.38,1.49Z"/>
      <path class="cls-2" d="M85.17,67.76c-2.95,0-5.67-.52-8.16-1.55-2.49-1.03-4.68-2.47-6.56-4.32-1.88-1.84-3.34-3.99-4.37-6.45-1.03-2.45-1.55-5.1-1.55-7.94s.52-5.53,1.55-7.97c1.03-2.44,2.47-4.57,4.32-6.39,1.84-1.83,4.01-3.25,6.5-4.26s5.21-1.52,8.16-1.52,5.62.51,8.11,1.52c2.49,1.01,4.67,2.43,6.53,4.26,1.86,1.83,3.31,3.97,4.34,6.42,1.03,2.45,1.55,5.12,1.55,8s-.52,5.49-1.55,7.94c-1.03,2.45-2.47,4.59-4.32,6.42s-4.01,3.26-6.5,4.29c-2.49,1.03-5.17,1.55-8.05,1.55ZM85.06,59.85c2.32,0,4.36-.52,6.12-1.55,1.75-1.03,3.11-2.48,4.07-4.34.96-1.86,1.44-4.01,1.44-6.45,0-1.84-.28-3.51-.83-5.01-.55-1.49-1.35-2.79-2.38-3.87-1.03-1.09-2.26-1.92-3.68-2.49-1.42-.57-3-.86-4.73-.86-2.32,0-4.36.51-6.11,1.52-1.75,1.01-3.11,2.43-4.07,4.26-.96,1.83-1.44,3.98-1.44,6.45,0,1.84.28,3.52.83,5.04.55,1.51,1.34,2.81,2.35,3.9,1.01,1.09,2.24,1.93,3.68,2.52,1.44.59,3.02.89,4.76.89Z"/>
      <path class="cls-2" d="M113.06,67.1V28.03h6.09l2.6,7.8v31.27h-8.69ZM140.01,67.1l-23.02-29.5,2.16-9.57,23.02,29.5-2.16,9.57ZM140.01,67.1l-2.32-7.8v-31.27h8.69v39.07h-6.36Z"/>
      <path class="cls-2" d="M153.18,35.61v-7.58h33.15v7.58h-33.15ZM165.41,67.1V28.58h8.69v38.51h-8.69Z"/>
      <path class="cls-2" d="M185.38,67.1l15.49-39.07h7.86l15.33,39.07h-9.19l-11.73-32.43h3.15l-11.9,32.43h-9.02ZM194.18,60.02v-7.08h21.3v7.08h-21.3Z"/>
      <path class="cls-2" d="M246.59,67.71c-2.92,0-5.62-.51-8.11-1.52s-4.67-2.44-6.53-4.29c-1.86-1.84-3.31-3.99-4.34-6.45-1.03-2.45-1.55-5.1-1.55-7.94s.52-5.49,1.55-7.94c1.03-2.45,2.47-4.58,4.32-6.39,1.84-1.81,4.01-3.22,6.5-4.23,2.49-1.01,5.19-1.52,8.11-1.52,3.1,0,5.86.5,8.27,1.49,2.42,1,4.53,2.36,6.34,4.09l-5.81,5.87c-1.03-1.11-2.28-1.97-3.74-2.6-1.46-.63-3.15-.94-5.06-.94-1.7,0-3.26.29-4.68.86-1.42.57-2.64,1.39-3.65,2.46-1.01,1.07-1.81,2.36-2.38,3.87-.57,1.51-.86,3.17-.86,4.98s.29,3.52.86,5.04c.57,1.51,1.36,2.8,2.38,3.87s2.23,1.9,3.65,2.49c1.42.59,2.98.88,4.68.88,1.99,0,3.73-.31,5.2-.94,1.47-.63,2.75-1.49,3.82-2.6l5.87,5.87c-1.88,1.73-4.03,3.1-6.45,4.09-2.42,1-5.21,1.49-8.38,1.49Z"/>
      <path class="cls-2" d="M264.85,35.61v-7.58h33.15v7.58h-33.15ZM277.08,67.1V28.58h8.69v38.51h-8.69Z"/>
      <path class="cls-2" d="M304.8,67.1V28.03h8.69v39.07h-8.69ZM311.44,35.5v-7.47h21.14v7.47h-21.14ZM311.44,50.78v-7.25h19.48v7.25h-19.48ZM311.44,67.1v-7.53h21.42v7.53h-21.42Z"/>
      <path class="cls-2" d="M338.67,61.01l19.64-26.95h10.51l-19.7,26.95h-10.46ZM338.67,67.1v-6.09l5.75-1.38h23.91v7.47h-29.66ZM339.77,35.5v-7.47h29.05v6.03l-5.87,1.44h-23.19Z"/>
      <path class="cls-2" d="M388.8,67.1V28.03h6.09l2.6,7.8v31.27h-8.69ZM415.75,67.1l-23.02-29.5,2.16-9.57,23.02,29.5-2.16,9.57ZM415.75,67.1l-2.32-7.8v-31.27h8.69v39.07h-6.36Z"/>
      <path class="cls-2" d="M450.23,67.76c-2.95,0-5.67-.52-8.16-1.55-2.49-1.03-4.68-2.47-6.56-4.32-1.88-1.84-3.34-3.99-4.37-6.45-1.03-2.45-1.55-5.1-1.55-7.94s.52-5.53,1.55-7.97c1.03-2.44,2.47-4.57,4.32-6.39,1.84-1.83,4.01-3.25,6.5-4.26s5.21-1.52,8.16-1.52,5.62.51,8.11,1.52c2.49,1.01,4.67,2.43,6.53,4.26,1.86,1.83,3.31,3.97,4.34,6.42,1.03,2.45,1.55,5.12,1.55,8s-.52,5.49-1.55,7.94c-1.03,2.45-2.47,4.59-4.32,6.42s-4.01,3.26-6.5,4.29c-2.49,1.03-5.17,1.55-8.05,1.55ZM450.12,59.85c2.32,0,4.36-.52,6.12-1.55,1.75-1.03,3.11-2.48,4.07-4.34.96-1.86,1.44-4.01,1.44-6.45,0-1.84-.28-3.51-.83-5.01-.55-1.49-1.35-2.79-2.38-3.87-1.03-1.09-2.26-1.92-3.68-2.49-1.42-.57-3-.86-4.73-.86-2.32,0-4.36.51-6.11,1.52-1.75,1.01-3.11,2.43-4.07,4.26-.96,1.83-1.44,3.98-1.44,6.45,0,1.84.28,3.52.83,5.04.55,1.51,1.34,2.81,2.35,3.9,1.01,1.09,2.24,1.93,3.68,2.52,1.44.59,3.02.89,4.76.89Z"/>
      <path class="cls-2" d="M493.83,67.71c-3.21,0-6.04-.68-8.49-2.05-2.45-1.36-4.37-3.26-5.75-5.67-1.38-2.42-2.08-5.17-2.08-8.27v-23.68h8.74v24.18c0,1.55.33,2.9,1,4.04s1.58,2.02,2.74,2.63c1.16.61,2.44.91,3.85.91,1.48,0,2.77-.3,3.87-.91,1.11-.61,1.98-1.47,2.63-2.6.65-1.12.97-2.46.97-4.01v-24.24h8.74v23.74c0,3.1-.68,5.85-2.05,8.25-1.37,2.4-3.26,4.28-5.7,5.64-2.43,1.37-5.26,2.05-8.47,2.05Z"/>
      <path class="cls-2" d="M530.19,67.71c-3.21,0-5.97-.53-8.27-1.58-2.31-1.05-4.42-2.65-6.34-4.79l5.64-5.59c1.25,1.44,2.65,2.55,4.18,3.35,1.53.79,3.31,1.19,5.34,1.19,1.84,0,3.27-.33,4.29-1s1.52-1.59,1.52-2.77c0-1.07-.33-1.94-1-2.6s-1.54-1.24-2.63-1.72c-1.09-.48-2.29-.94-3.6-1.38-1.31-.44-2.61-.95-3.9-1.52-1.29-.57-2.48-1.29-3.57-2.16-1.09-.87-1.96-1.96-2.63-3.26s-1-2.96-1-4.95c0-2.4.58-4.46,1.74-6.2,1.16-1.73,2.78-3.05,4.84-3.96,2.07-.9,4.45-1.36,7.14-1.36s5.23.48,7.5,1.44c2.27.96,4.14,2.27,5.62,3.93l-5.64,5.59c-1.18-1.22-2.37-2.12-3.57-2.71-1.2-.59-2.55-.88-4.07-.88s-2.71.29-3.6.86c-.88.57-1.33,1.39-1.33,2.46,0,1,.33,1.8,1,2.41.66.61,1.54,1.13,2.63,1.58,1.09.44,2.29.89,3.6,1.33,1.31.44,2.61.96,3.9,1.55,1.29.59,2.48,1.34,3.57,2.24,1.09.9,1.96,2.05,2.63,3.43s1,3.09,1,5.12c0,3.73-1.33,6.65-3.98,8.77-2.66,2.12-6.33,3.18-11.01,3.18Z"/>
    </g>
  </g>
</svg>