<?xml version="1.0" encoding="UTF-8"?>
<svg id="Layer_2" data-name="Layer 2" xmlns="http://www.w3.org/2000/svg" viewBox="0 0 82.98 46.96">
  <defs>
    <style>
      .cls-1 {
        fill: #fff;
        stroke-width: 0px;
      }
    </style>
  </defs>
  <g id="Layer_1-2" data-name="Layer 1">
    <path class="cls-1" d="M81.55,27.24h-.53c-.75,4.06-1.73,7.31-2.93,9.75-1.2,2.43-2.86,4.18-4.97,5.23s-4.92,1.58-8.43,1.58c-3.06-.1-5.67-1-7.83-2.71-2.16-1.71-3.81-4.08-4.97-7.11-.82-2.16-1.34-4.59-1.58-7.29h16.27v-5.97h-16.33c.19-2.93.73-5.59,1.61-7.96,1.13-3.03,2.85-5.39,5.16-7.07,2.31-1.68,5.22-2.52,8.73-2.52s6.37.89,8.88,2.67c2.51,1.78,4.41,4.98,5.72,9.6h.53l.45-12.34c-1.81-.85-4.15-1.58-7.04-2.18-2.89-.6-6.08-.9-9.6-.9-5.82,0-10.83.93-15.01,2.78-3.38,1.5-6.1,3.53-8.19,6.09-2.09-2.56-4.81-4.59-8.19-6.09C29.11.93,24.11,0,18.29,0c-3.51,0-6.71.3-9.6.9-2.88.6-5.23,1.33-7.04,2.18l.45,12.34h.53c1.3-4.62,3.21-7.81,5.72-9.6,2.51-1.78,5.47-2.67,8.88-2.67s6.42.84,8.73,2.52c2.31,1.68,4.03,4.04,5.16,7.07.88,2.37,1.41,5.03,1.61,7.96H15.6v5.97h17.06c-.24,2.7-.76,5.14-1.58,7.29-1.15,3.04-2.81,5.41-4.97,7.11-2.16,1.71-4.77,2.61-7.83,2.71-3.51,0-6.32-.53-8.43-1.58-2.11-1.05-3.76-2.8-4.97-5.23-1.2-2.43-2.18-5.68-2.93-9.75h-.53l-1.43,11.66c.85,1.5,2.07,2.86,3.65,4.06,1.58,1.2,3.58,2.17,5.98,2.9,2.41.73,5.29,1.09,8.65,1.09,5.72-.05,10.67-.98,14.86-2.78,3.43-1.48,6.2-3.54,8.34-6.17,2.14,2.62,4.91,4.69,8.34,6.17,4.19,1.81,9.14,2.73,14.86,2.78,3.36,0,6.25-.36,8.65-1.09,2.41-.73,4.4-1.69,5.98-2.9,1.58-1.2,2.8-2.56,3.65-4.06l-1.43-11.66Z"/>
  </g>
</svg>