<?xml version="1.0" encoding="UTF-8"?>
<svg id="Layer_2" data-name="Layer 2" xmlns="http://www.w3.org/2000/svg" viewBox="0 0 415.58 227.55">
  <defs>
    <style>
      .cls-1 {
        fill: #fff;
        stroke-width: 0px;
      }
    </style>
  </defs>
  <g id="Layer_1-2" data-name="Layer 1">
    <g>
      <path class="cls-1" d="M33.4,192.71c-1.1,1.57-2.52,2.78-4.27,3.65-1.75.86-4.01,1.29-6.78,1.29h-11.21v-23.45h13.25c1.04,0,1.93.38,2.67,1.14.73.76,1.1,1.66,1.1,2.71v1.18h.78v-12.39h-.78v1.1c0,1.05-.37,1.95-1.1,2.71-.73.76-1.62,1.16-2.67,1.21h-13.25v-24.23h16.38c1.03.16,1.93.61,2.68,1.37.89.92,1.33,2,1.33,3.25v1.41h.79v-9.88c-.47.21-1.25.42-2.35.63-1.1.21-2.29.39-3.57.55-1.28.16-2.5.24-3.65.24H0l.08.78h.94c1.36,0,2.54.48,3.53,1.45.99.97,1.49,2.13,1.49,3.49v43.44c-.05,1.36-.56,2.52-1.53,3.49-.97.97-2.13,1.45-3.49,1.45H0v.78h32.54l4.55-12.7h-.79c-.84,1.99-1.8,3.76-2.9,5.33Z"/>
      <path class="cls-1" d="M79.82,188.87c-.73,1.67-1.6,3.18-2.59,4.51-.99,1.33-2.29,2.38-3.88,3.14-1.6.76-3.7,1.14-6.31,1.14h-11.92v-39.6c0-1.2.46-2.21,1.37-3.02.91-.81,2-1.21,3.25-1.21h.94v-.78h-16.23v.78h.94c1.31,0,2.4.41,3.29,1.21.89.81,1.36,1.82,1.41,3.02v37.01c-.05,1.15-.5,2.14-1.33,2.98-.84.84-1.91,1.25-3.21,1.25h-1.1v.78h31.83l4.31-11.21h-.78Z"/>
      <path class="cls-1" d="M102.33,199.3h-1.02c-1.46,0-2.71-.42-3.72-1.25-1.02-.83-1.56-1.83-1.61-2.98v-37.01c.05-1.2.59-2.21,1.61-3.02,1.02-.81,2.26-1.21,3.72-1.21h1.02l.08-.78h-17.8v.78h1.1c1.46,0,2.71.41,3.72,1.21,1.02.81,1.56,1.82,1.61,3.02v37.01c-.05,1.15-.59,2.14-1.61,2.98-1.02.84-2.26,1.25-3.72,1.25h-1.1v.78h17.8l-.08-.78Z"/>
      <path class="cls-1" d="M150,160.56h.86v-8.86c-.47.16-1.2.34-2.2.55-.99.21-2.08.38-3.25.51-1.18.13-2.29.2-3.33.2h-25.48c-1.05,0-2.17-.07-3.37-.2-1.2-.13-2.29-.3-3.25-.51-.97-.21-1.69-.39-2.16-.55v8.86h.86v-1.25c0-1.1.35-2.02,1.06-2.78.71-.76,1.66-1.16,2.86-1.22h14.19v39.75c-.05,1.15-.52,2.14-1.41,2.98-.89.84-1.96,1.25-3.21,1.25h-.94v.78h16.15v-.78h-.86c-1.26,0-2.33-.42-3.21-1.25-.89-.83-1.36-1.83-1.41-2.98v-39.75h14.19c1.2.05,2.16.46,2.86,1.22.71.76,1.06,1.69,1.06,2.78v1.25Z"/>
      <path class="cls-1" d="M189.05,193.38c-.99,1.33-2.29,2.38-3.88,3.14-1.6.76-3.7,1.14-6.31,1.14h-11.92v-19.92h13.33c1.1,0,1.91.33,2.43.98.52.65.79,1.42.79,2.31v1.02h.86v-10.98h-.86v1.02c0,.89-.26,1.66-.79,2.31-.52.65-1.33.98-2.43.98h-13.33v-19.92h16.23c1.2,0,2.16.39,2.86,1.18s1.06,1.73,1.06,2.82v1.18h.86v-8.86c-.68.26-1.93.54-3.76.82-1.83.29-3.55.43-5.17.43h-22.74v.78h1.1c1.31,0,2.38.39,3.21,1.18.84.78,1.28,1.78,1.33,2.98v37.09c-.05,1.15-.5,2.14-1.33,2.98-.84.84-1.91,1.25-3.21,1.25h-1.1v.78h31.83l4.31-11.21h-.78c-.73,1.67-1.6,3.18-2.59,4.51Z"/>
      <path class="cls-1" d="M282.67,199.3h-1.18c-1.31,0-2.48-.39-3.53-1.18-1-.75-1.61-1.8-1.84-3.14l-6.31-43.05h-.71l-20,39.79-20.69-39.79h-.79l-6.08,42.89h-.04c-.16,1.41-.75,2.51-1.76,3.29-1.02.78-2.21,1.18-3.57,1.18h-1.18v.78h14.51v-.71h-1.1c-1.15-.05-1.94-.43-2.35-1.14-.32-.54-.5-1.11-.54-1.7l3.56-31.82,18.87,36.47h.79c.21-1.1.52-2.26.94-3.49.42-1.23,1.02-2.73,1.8-4.51l14.79-29.14,4.13,31.96h-.02c.1.73-.04,1.46-.43,2.2-.39.73-1.19,1.12-2.39,1.18h-1.18v.71h16.31v-.78Z"/>
      <path class="cls-1" d="M322.59,200.08h.24l2.98-14.43h-.71c-.68,2.3-1.65,4.3-2.9,6-1.25,1.7-2.76,3.01-4.51,3.92-1.75.92-3.75,1.37-6,1.37h-9.25v-18.58h8.94c1.83,0,3.28.59,4.35,1.76,1.07,1.18,1.61,2.63,1.61,4.35v.63h.79v-16.62h-.79v.55c0,1.72-.54,3.18-1.61,4.35s-2.52,1.79-4.35,1.84h-8.94v-19.05h11.29c2.3.05,4.06.73,5.29,2.04,1.23,1.31,1.84,3.11,1.84,5.41v.71h.78v-12.47c-.63.21-1.78.46-3.45.74-1.67.29-3.27.43-4.78.43h-27.52v.78h1.02c1.15,0,2.14.39,2.98,1.18.84.78,1.25,1.78,1.25,2.98v37.17c0,1.15-.42,2.13-1.25,2.94-.84.81-1.83,1.21-2.98,1.21h-1.02v.78h36.7Z"/>
      <path class="cls-1" d="M366.73,200.08l2.98-14.43h-.71c-.68,2.3-1.65,4.3-2.9,6-1.26,1.7-2.76,3.01-4.51,3.92-1.75.92-3.75,1.37-6,1.37h-9.25v-18.58h8.94c1.83,0,3.28.59,4.35,1.76,1.07,1.18,1.61,2.63,1.61,4.35v.63h.78v-16.62h-.78v.55c0,1.72-.54,3.18-1.61,4.35s-2.52,1.79-4.35,1.84h-8.94v-19.05h11.29c2.3.05,4.06.73,5.29,2.04,1.23,1.31,1.84,3.11,1.84,5.41v.71h.79v-12.47c-.63.21-1.78.46-3.45.74-1.67.29-3.27.43-4.78.43h-27.52v.78h1.02c1.15,0,2.14.39,2.98,1.18s1.25,1.78,1.25,2.98v37.17c0,1.15-.42,2.13-1.25,2.94s-1.83,1.21-2.98,1.21h-1.02v.78h36.93Z"/>
      <path class="cls-1" d="M413.39,152.25c-.99.21-2.08.38-3.25.51-1.18.13-2.29.2-3.33.2h-25.48c-1.05,0-2.17-.07-3.37-.2-1.2-.13-2.29-.3-3.25-.51-.97-.21-1.69-.39-2.16-.55v8.86h.86v-1.25c0-1.1.35-2.02,1.06-2.78.71-.76,1.66-1.16,2.86-1.22h14.19v39.75c-.05,1.15-.52,2.14-1.41,2.98-.89.84-1.96,1.25-3.21,1.25h-.94v.78h16.15v-.78h-.86c-1.25,0-2.33-.42-3.21-1.25-.89-.83-1.36-1.83-1.41-2.98v-39.75h14.19c1.2.05,2.16.46,2.86,1.22.71.76,1.06,1.69,1.06,2.78v1.25h.86v-8.86c-.47.16-1.2.34-2.2.55Z"/>
      <path class="cls-1" d="M258.56,105.8c7.57,0,14.07-.82,19.5-2.46,5.43-1.64,9.92-3.82,13.48-6.53,3.56-2.71,6.3-5.76,8.22-9.16l-3.22-26.28h-1.19c-1.7,9.16-3.9,16.48-6.61,21.96-2.71,5.48-6.44,9.41-11.19,11.78-4.75,2.37-11.08,3.56-18.99,3.56-6.9-.23-12.77-2.26-17.63-6.1-4.86-3.84-8.59-9.18-11.19-16.02-1.85-4.86-3.03-10.34-3.56-16.43h36.65v-13.46h-36.79c.44-6.61,1.63-12.59,3.62-17.93,2.54-6.84,6.41-12.15,11.61-15.94,5.2-3.79,11.76-5.68,19.67-5.68s14.35,2.01,20.01,6.02c5.65,4.01,9.95,11.22,12.89,21.62h1.19l1.02-27.81c-4.07-1.92-9.35-3.56-15.85-4.92-6.5-1.36-13.71-2.03-21.62-2.03-13.11,0-24.39,2.09-33.83,6.27-7.61,3.37-13.74,7.96-18.45,13.72-4.71-5.76-10.84-10.35-18.45-13.72-9.44-4.18-20.71-6.27-33.83-6.27-7.91,0-15.12.68-21.62,2.03-6.5,1.36-11.78,3-15.85,4.92l1.02,27.81h1.19c2.94-10.4,7.23-17.6,12.89-21.62,5.65-4.01,12.32-6.02,20.01-6.02s14.47,1.89,19.67,5.68c5.2,3.79,9.07,9.1,11.61,15.94,1.98,5.34,3.18,11.32,3.62,17.93h-38.58v13.46h38.44c-.53,6.09-1.71,11.57-3.56,16.43-2.6,6.84-6.33,12.18-11.19,16.02-4.86,3.84-10.74,5.88-17.63,6.1-7.91,0-14.24-1.19-18.99-3.56-4.75-2.37-8.48-6.3-11.19-11.78-2.71-5.48-4.92-12.8-6.61-21.96h-1.19l-3.22,26.28c1.92,3.39,4.66,6.44,8.22,9.16,3.56,2.71,8.05,4.89,13.48,6.53s11.93,2.46,19.5,2.46c12.89-.11,24.05-2.2,33.49-6.27,7.73-3.33,13.98-7.98,18.79-13.89,4.81,5.91,11.06,10.56,18.79,13.89,9.44,4.07,20.6,6.16,33.49,6.27Z"/>
      <path class="cls-1" d="M50.15,214.26c-.66-.34-1.41-.51-2.24-.51h-5.06v13.6h1.84v-5.29h3.21c.83,0,1.58-.17,2.24-.52.66-.35,1.18-.83,1.57-1.45.39-.62.58-1.35.58-2.19s-.19-1.58-.58-2.2c-.38-.62-.91-1.1-1.57-1.44ZM50.09,219.26c-.23.38-.54.67-.94.88-.4.21-.85.31-1.36.31h-3.1v-5.09h3.1c.51,0,.96.1,1.36.31.4.21.71.5.94.88s.34.83.34,1.35-.11.97-.34,1.35Z"/>
      <path class="cls-1" d="M67.7,220.95c.64-.32,1.13-.77,1.48-1.34.35-.57.52-1.25.52-2.02s-.17-1.4-.52-1.98c-.35-.57-.84-1.03-1.48-1.36-.64-.33-1.39-.5-2.25-.5h-5v13.6h1.84v-5.92h1.2l4.8,5.92h2.33l-4.89-5.93c.74-.03,1.4-.18,1.97-.47ZM62.29,215.36h3.1c.8,0,1.41.22,1.83.65s.64.97.64,1.63c0,.69-.21,1.24-.65,1.65-.43.41-1.04.61-1.84.61h-3.08v-4.53Z"/>
      <path class="cls-1" d="M89.24,215.57c-.63-.64-1.36-1.14-2.19-1.49-.83-.35-1.73-.53-2.69-.53s-1.87.18-2.69.53c-.83.35-1.55.85-2.17,1.49-.62.64-1.1,1.38-1.45,2.22-.35.84-.52,1.75-.52,2.73s.17,1.87.52,2.72c.35.85.83,1.6,1.46,2.24.63.65,1.36,1.15,2.19,1.51.84.36,1.74.54,2.7.54s1.85-.18,2.67-.54c.83-.36,1.55-.86,2.18-1.5.62-.64,1.11-1.38,1.46-2.23.35-.85.53-1.76.53-2.72s-.18-1.89-.53-2.74c-.35-.85-.84-1.59-1.47-2.23ZM88.69,223.25c-.43.79-1.02,1.41-1.75,1.86s-1.6.68-2.58.68c-.72,0-1.38-.13-1.99-.39-.61-.26-1.13-.62-1.57-1.09-.44-.46-.78-1.02-1.02-1.67-.24-.65-.36-1.35-.36-2.11,0-1.02.21-1.92.64-2.7.42-.78,1.01-1.4,1.74-1.84.74-.44,1.59-.67,2.56-.67.73,0,1.4.13,2,.38.6.25,1.12.62,1.57,1.09.44.47.79,1.02,1.04,1.66.25.63.37,1.33.37,2.09,0,1.02-.22,1.92-.65,2.71Z"/>
      <polygon class="cls-1" points="100.9 213.75 99.64 213.75 99.64 227.35 101.48 227.35 101.48 221.38 107.99 221.38 107.99 219.69 101.48 219.69 101.48 215.44 108.32 215.44 108.32 213.75 101.48 213.75 100.9 213.75"/>
      <polygon class="cls-1" points="118.45 221.2 125.02 221.2 125.02 219.59 118.45 219.59 118.45 215.44 125.57 215.44 125.57 213.75 118.45 213.75 117.87 213.75 116.61 213.75 116.61 227.35 117.87 227.35 118.45 227.35 125.67 227.35 125.67 225.67 118.45 225.67 118.45 221.2"/>
      <path class="cls-1" d="M140.77,220.75c-.39-.3-.82-.55-1.29-.74-.47-.2-.94-.38-1.42-.54s-.91-.34-1.3-.54c-.39-.2-.71-.43-.95-.72-.24-.28-.36-.65-.36-1.11,0-.57.22-1.02.65-1.34.43-.32,1.01-.48,1.74-.48.6,0,1.13.12,1.6.35.46.23.9.59,1.3,1.06l1.25-1.25c-.44-.56-1.02-1.02-1.72-1.36-.71-.35-1.5-.52-2.39-.52-.81,0-1.54.15-2.19.44s-1.16.71-1.53,1.25c-.37.54-.56,1.2-.56,1.97,0,.69.12,1.27.36,1.72.24.46.56.83.95,1.11.39.28.82.52,1.29.71.47.19.94.37,1.41.53.47.16.9.35,1.3.55s.71.46.95.77.35.73.35,1.23c0,.61-.24,1.1-.73,1.45s-1.14.53-1.95.53-1.52-.15-2.08-.46-1.06-.76-1.49-1.36l-1.25,1.25c.59.74,1.26,1.31,2.02,1.7.76.39,1.67.59,2.74.59,1.41,0,2.53-.34,3.36-1.02.83-.68,1.24-1.62,1.24-2.82,0-.72-.12-1.32-.36-1.79-.24-.48-.56-.87-.95-1.17Z"/>
      <path class="cls-1" d="M157.17,220.75c-.39-.3-.82-.55-1.29-.74-.47-.2-.94-.38-1.42-.54s-.91-.34-1.3-.54c-.39-.2-.71-.43-.95-.72-.24-.28-.36-.65-.36-1.11,0-.57.22-1.02.65-1.34.43-.32,1.01-.48,1.74-.48.6,0,1.13.12,1.6.35.46.23.9.59,1.3,1.06l1.25-1.25c-.44-.56-1.02-1.02-1.72-1.36-.71-.35-1.5-.52-2.39-.52-.81,0-1.54.15-2.19.44s-1.16.71-1.53,1.25c-.37.54-.56,1.2-.56,1.97,0,.69.12,1.27.36,1.72.24.46.56.83.95,1.11.39.28.82.52,1.29.71.47.19.94.37,1.41.53.47.16.9.35,1.3.55s.71.46.95.77.35.73.35,1.23c0,.61-.24,1.1-.73,1.45s-1.14.53-1.95.53-1.52-.15-2.08-.46-1.06-.76-1.49-1.36l-1.25,1.25c.59.74,1.26,1.31,2.02,1.7.76.39,1.67.59,2.74.59,1.41,0,2.53-.34,3.36-1.02.83-.68,1.24-1.62,1.24-2.82,0-.72-.12-1.32-.36-1.79-.24-.48-.56-.87-.95-1.17Z"/>
      <rect class="cls-1" x="166.86" y="213.75" width="1.84" height="13.6"/>
      <path class="cls-1" d="M188.82,215.57c-.63-.64-1.36-1.14-2.19-1.49-.83-.35-1.73-.53-2.69-.53s-1.87.18-2.69.53c-.83.35-1.55.85-2.17,1.49-.62.64-1.1,1.38-1.45,2.22-.35.84-.52,1.75-.52,2.73s.17,1.87.52,2.72c.35.85.83,1.6,1.46,2.24.63.65,1.36,1.15,2.19,1.51.84.36,1.74.54,2.7.54s1.85-.18,2.67-.54c.83-.36,1.55-.86,2.18-1.5.62-.64,1.11-1.38,1.46-2.23.35-.85.53-1.76.53-2.72s-.18-1.89-.53-2.74c-.35-.85-.84-1.59-1.47-2.23ZM188.27,223.25c-.43.79-1.02,1.41-1.75,1.86s-1.6.68-2.58.68c-.72,0-1.38-.13-1.99-.39-.61-.26-1.13-.62-1.57-1.09-.44-.46-.78-1.02-1.02-1.67-.24-.65-.36-1.35-.36-2.11,0-1.02.21-1.92.64-2.7.42-.78,1.01-1.4,1.74-1.84.74-.44,1.59-.67,2.56-.67.73,0,1.4.13,2,.38.6.25,1.12.62,1.57,1.09.44.47.79,1.02,1.04,1.66.25.63.37,1.33.37,2.09,0,1.02-.22,1.92-.65,2.71Z"/>
      <polygon class="cls-1" points="208.08 223.81 200.52 213.75 199.23 213.75 199.23 227.35 201.07 227.35 201.07 217.25 208.63 227.35 209.93 227.35 209.93 213.75 208.08 213.75 208.08 223.81"/>
      <path class="cls-1" d="M223.59,213.75l-5.57,13.6h1.96l1.23-3.08h6.03l1.22,3.08h2l-5.55-13.6h-1.33ZM221.86,222.67l2.39-5.96,2.37,5.96h-4.75Z"/>
      <polygon class="cls-1" points="240.22 213.75 238.38 213.75 238.38 227.35 239.63 227.35 240.22 227.35 246.92 227.35 246.92 225.67 240.22 225.67 240.22 213.75"/>
      <path class="cls-1" d="M268.87,213.75l-5.57,13.6h1.96l1.23-3.08h6.03l1.22,3.08h2l-5.55-13.6h-1.33ZM267.14,222.67l2.39-5.96,2.37,5.96h-4.75Z"/>
      <path class="cls-1" d="M288.82,221.79h4.72c-.07.69-.25,1.29-.52,1.81-.38.71-.92,1.25-1.62,1.62-.7.37-1.53.55-2.48.55s-1.78-.22-2.51-.67c-.73-.44-1.31-1.06-1.74-1.84-.43-.78-.65-1.69-.65-2.72s.21-1.92.64-2.7c.42-.78,1.02-1.4,1.78-1.84.76-.44,1.64-.67,2.64-.67.84,0,1.61.17,2.31.5.71.33,1.27.81,1.71,1.44l1.27-1.27c-.61-.78-1.38-1.38-2.29-1.8-.92-.42-1.91-.63-3-.63-.99,0-1.91.18-2.75.53-.84.35-1.58.85-2.2,1.49-.63.64-1.12,1.38-1.47,2.22-.35.84-.53,1.75-.53,2.73s.18,1.89.53,2.74c.35.85.84,1.59,1.46,2.23.62.64,1.34,1.14,2.17,1.5.83.36,1.72.54,2.67.54,1.27,0,2.39-.27,3.38-.8.99-.54,1.76-1.34,2.31-2.4.56-1.06.83-2.39.83-3.97v-.27h-6.66v1.69Z"/>
      <polygon class="cls-1" points="305.65 221.2 312.22 221.2 312.22 219.59 305.65 219.59 305.65 215.44 312.77 215.44 312.77 213.75 305.65 213.75 305.07 213.75 303.81 213.75 303.81 227.35 305.07 227.35 305.65 227.35 312.86 227.35 312.86 225.67 305.65 225.67 305.65 221.2"/>
      <polygon class="cls-1" points="330.11 223.81 322.54 213.75 321.25 213.75 321.25 227.35 323.09 227.35 323.09 217.25 330.66 227.35 331.95 227.35 331.95 213.75 330.11 213.75 330.11 223.81"/>
      <path class="cls-1" d="M349.41,225.36c-.63.28-1.37.42-2.21.42-.72,0-1.38-.13-1.98-.38-.6-.25-1.12-.62-1.57-1.09-.44-.47-.79-1.03-1.03-1.67-.24-.64-.36-1.34-.36-2.1s.12-1.46.36-2.1c.24-.64.58-1.2,1.03-1.67.44-.47.97-.83,1.57-1.09.6-.25,1.26-.38,1.98-.38.8,0,1.51.14,2.13.41.62.27,1.15.65,1.58,1.14l1.27-1.27c-.63-.63-1.35-1.12-2.16-1.49-.81-.37-1.75-.55-2.82-.55-.98,0-1.88.18-2.71.54-.83.36-1.55.86-2.17,1.49-.62.63-1.1,1.38-1.44,2.22s-.51,1.76-.51,2.74.17,1.88.51,2.72c.34.85.82,1.59,1.44,2.23.62.64,1.35,1.14,2.18,1.5.84.36,1.74.54,2.72.54,1.06,0,2.01-.18,2.85-.55.84-.37,1.58-.88,2.2-1.53l-1.27-1.25c-.43.48-.96.87-1.59,1.15Z"/>
      <polygon class="cls-1" points="368.63 213.75 364.79 219.62 360.95 213.75 358.82 213.75 363.85 221.35 363.85 227.35 365.7 227.35 365.7 221.3 370.73 213.75 368.63 213.75"/>
    </g>
  </g>
</svg>