<?xml version="1.0" encoding="UTF-8"?>
<svg id="Layer_2" data-name="Layer 2" xmlns="http://www.w3.org/2000/svg" xmlns:xlink="http://www.w3.org/1999/xlink" viewBox="0 0 30 30">
  <defs>
    <style>
      .cls-1 {
        fill: #fff;
        stroke-width: 0px;
      }

      .cls-1, .cls-2 {
        fill-rule: evenodd;
      }

      .cls-2 {
        fill: none;
        stroke: url(#linear-gradient);
        stroke-miterlimit: 10;
      }
    </style>
    <linearGradient id="linear-gradient" x1="0" y1="15" x2="30" y2="15" gradientUnits="userSpaceOnUse">
      <stop offset="0" stop-color="#f9df7b"/>
      <stop offset=".28" stop-color="#b57e10"/>
      <stop offset=".34" stop-color="#e5c25b"/>
      <stop offset=".37" stop-color="#f9df7b"/>
      <stop offset=".48" stop-color="#fff3a6"/>
      <stop offset=".64" stop-color="#f9df7b"/>
      <stop offset="1" stop-color="#b57e10"/>
    </linearGradient>
  </defs>
  <g id="Layer_1-2" data-name="Layer 1">
    <g>
      <path class="cls-2" d="M24.88,29.5H5.12c-2.55,0-4.62-2.07-4.62-4.62V5.12C.5,2.57,2.57.5,5.12.5h19.76c2.55,0,4.62,2.07,4.62,4.62v19.76c0,2.55-2.07,4.62-4.62,4.62h0Z"/>
      <path class="cls-1" d="M12.28,25.95h3.96v-9.13h2.91l.59-3.67h-3.5v-2.79c0-1.04.98-1.63,1.93-1.63h1.71v-3.06l-3.06-.13c-2.93-.17-4.54,2.11-4.54,4.84v2.75h-3.32v3.67h3.32v9.13Z"/>
    </g>
  </g>
</svg>