<?xml version="1.0" encoding="UTF-8"?>
<svg id="Layer_2" data-name="Layer 2" xmlns="http://www.w3.org/2000/svg" xmlns:xlink="http://www.w3.org/1999/xlink" viewBox="0 0 30 30">
  <defs>
    <style>
      .cls-1 {
        fill: #fff;
        stroke-width: 0px;
      }

      .cls-1, .cls-2 {
        fill-rule: evenodd;
      }

      .cls-2 {
        fill: none;
        stroke: url(#linear-gradient);
        stroke-miterlimit: 10;
      }
    </style>
    <linearGradient id="linear-gradient" x1="0" y1="15" x2="30" y2="15" gradientUnits="userSpaceOnUse">
      <stop offset="0" stop-color="#f9df7b"/>
      <stop offset=".28" stop-color="#b57e10"/>
      <stop offset=".34" stop-color="#e5c25b"/>
      <stop offset=".37" stop-color="#f9df7b"/>
      <stop offset=".48" stop-color="#fff3a6"/>
      <stop offset=".64" stop-color="#f9df7b"/>
      <stop offset="1" stop-color="#b57e10"/>
    </linearGradient>
  </defs>
  <g id="Layer_1-2" data-name="Layer 1">
    <g>
      <path class="cls-2" d="M24.88,29.5H5.12c-2.55,0-4.62-2.07-4.62-4.62V5.12C.5,2.57,2.57.5,5.12.5h19.76c2.55,0,4.62,2.07,4.62,4.62v19.76c0,2.55-2.07,4.62-4.62,4.62h0Z"/>
      <path class="cls-1" d="M12.05,10.54h3.18v1.52c.69-1,1.8-1.63,3.07-1.63h.88c2.03,0,3.68,1.66,3.68,3.66v7.29h-3.19v-5.87c-.05-1.22-.88-2.19-2.11-2.19h0c-1.24,0-2.27.97-2.31,2.19h0v5.87h-3.18v-10.84ZM8.5,5.05c1.08,0,1.96.88,1.96,1.96s-.88,1.94-1.96,1.94-1.91-.88-1.91-1.94.83-1.96,1.91-1.96h0ZM6.91,10.54h3.24v10.84h-3.24v-10.84Z"/>
    </g>
  </g>
</svg>