<?xml version="1.0" encoding="UTF-8"?>
<svg id="Layer_2" data-name="Layer 2" xmlns="http://www.w3.org/2000/svg" xmlns:xlink="http://www.w3.org/1999/xlink" viewBox="0 0 30.02 30">
  <defs>
    <style>
      .cls-1 {
        fill: #fff;
        stroke-width: 0px;
      }

      .cls-1, .cls-2 {
        fill-rule: evenodd;
      }

      .cls-2 {
        fill: none;
        stroke: url(#linear-gradient);
        stroke-miterlimit: 10;
      }
    </style>
    <linearGradient id="linear-gradient" x1="0" y1="15" x2="30.02" y2="15" gradientUnits="userSpaceOnUse">
      <stop offset="0" stop-color="#f9df7b"/>
      <stop offset=".28" stop-color="#b57e10"/>
      <stop offset=".34" stop-color="#e5c25b"/>
      <stop offset=".37" stop-color="#f9df7b"/>
      <stop offset=".48" stop-color="#fff3a6"/>
      <stop offset=".64" stop-color="#f9df7b"/>
      <stop offset="1" stop-color="#b57e10"/>
    </linearGradient>
  </defs>
  <g id="Layer_1-2" data-name="Layer 1">
    <g>
      <path class="cls-2" d="M24.88,29.5H5.14c-2.55,0-4.64-2.07-4.64-4.62V5.12C.5,2.57,2.59.5,5.14.5h19.74c2.55,0,4.64,2.07,4.64,4.62v19.76c0,2.55-2.09,4.62-4.64,4.62h0Z"/>
      <path class="cls-1" d="M10.81,7.37h8.44c1.9,0,3.44,1.55,3.44,3.45v8.39c0,1.9-1.54,3.45-3.44,3.45h-8.44c-1.9,0-3.45-1.55-3.45-3.45v-8.39c0-1.9,1.55-3.45,3.45-3.45h0ZM15,11.69h.05c1.8,0,3.31,1.5,3.31,3.32h0c0,1.85-1.5,3.36-3.31,3.36h-.05c-1.82,0-3.32-1.5-3.32-3.36h0c0-1.82,1.5-3.32,3.32-3.32h0ZM15,9.98h.05c2.74,0,5.03,2.3,5.03,5.03h0c0,2.79-2.3,5.03-5.03,5.03h-.05c-2.74,0-5-2.25-5-5.03h0c0-2.74,2.26-5.03,5-5.03h0ZM19.99,9h0c.57,0,1.06.49,1.06,1.06h0c0,.57-.49,1.06-1.06,1.06h0c-.62,0-1.06-.49-1.06-1.06h0c0-.57.44-1.06,1.06-1.06h0ZM10.76,5.77h8.52c2.74,0,5,2.26,5,5v8.48c0,2.74-2.26,4.99-5,4.99h-8.52c-2.74,0-4.99-2.25-4.99-4.99v-8.48c0-2.74,2.25-5,4.99-5h0Z"/>
    </g>
  </g>
</svg>