<?xml version="1.0" encoding="UTF-8"?>
<svg id="Layer_2" data-name="Layer 2" xmlns="http://www.w3.org/2000/svg" xmlns:xlink="http://www.w3.org/1999/xlink" viewBox="0 0 30 30">
  <defs>
    <style>
      .cls-1 {
        fill: none;
        stroke: url(#linear-gradient);
        stroke-miterlimit: 10;
      }

      .cls-1, .cls-2 {
        fill-rule: evenodd;
      }

      .cls-2 {
        fill: #fefefe;
        stroke-width: 0px;
      }
    </style>
    <linearGradient id="linear-gradient" x1="0" y1="15" x2="30" y2="15" gradientUnits="userSpaceOnUse">
      <stop offset="0" stop-color="#f9df7b"/>
      <stop offset=".28" stop-color="#b57e10"/>
      <stop offset=".34" stop-color="#e5c25b"/>
      <stop offset=".37" stop-color="#f9df7b"/>
      <stop offset=".48" stop-color="#fff3a6"/>
      <stop offset=".64" stop-color="#f9df7b"/>
      <stop offset="1" stop-color="#b57e10"/>
    </linearGradient>
  </defs>
  <g id="Layer_1-2" data-name="Layer 1">
    <g>
      <path class="cls-1" d="M24.88,29.5H5.12c-2.55,0-4.62-2.07-4.62-4.62V5.12C.5,2.57,2.57.5,5.12.5h19.76c2.55,0,4.62,2.07,4.62,4.62v19.76c0,2.55-2.07,4.62-4.62,4.62h0Z"/>
      <path class="cls-2" d="M21.63,6.07h1.47l-6.47,7.54,7.06,10.32h-5.14l-4.78-6.98-5.98,6.98h-1.47l6.81-7.93L6.33,6.07h5.14l4.51,6.59,5.65-6.59ZM8.43,7.21h2.33l10.83,15.58h-2.33L8.43,7.21Z"/>
    </g>
  </g>
</svg>